<svg viewBox="0 0 62 62" xmlns="http://www.w3.org/2000/svg" xmlns:xlink="http://www.w3.org/1999/xlink"><use xlink:href="#path0_fill" transform="translate(10 10)" fill="#53C1DE" filter="url(#filter0_d)"/><g transform="translate(-150 112)"><mask id="a"><use xlink:href="#path1_fill" fill="#fff" transform="translate(162.1 -99.9)"/></mask><g mask="url(#a)"><use xlink:href="#path2_stroke_2x" transform="translate(162.1 -99.9)"/></g></g><g transform="translate(-150 112)"><mask id="b"><use xlink:href="#path3_fill" fill="#fff" transform="translate(168.4 -93.6)"/></mask><g mask="url(#b)"><use xlink:href="#path4_stroke_2x" transform="translate(168.4 -93.6)"/></g></g><g transform="translate(-150 112)"><mask id="c"><use xlink:href="#path5_fill" fill="#fff" transform="translate(173.65 -88.35)"/></mask><g mask="url(#c)"><use xlink:href="#path6_stroke_2x" transform="translate(173.65 -88.35)"/></g></g><defs><filter id="filter0_d" filterUnits="userSpaceOnUse" x="150" y="-112" width="62" height="62" color-interpolation-filters="sRGB"><feFlood flood-opacity="0" result="BackgroundImageFix"/><feColorMatrix in="SourceAlpha" values="0 0 0 0 0 0 0 0 0 0 0 0 0 0 0 0 0 0 255 0"/><feOffset/><feGaussianBlur stdDeviation="5"/><feColorMatrix values="0 0 0 0 0.32549 0 0 0 0 0.756863 0 0 0 0 0.870588 0 0 0 1 0"/><feBlend in2="BackgroundImageFix" result="effect1_dropShadow"/><feBlend in="SourceGraphic" in2="effect1_dropShadow" result="shape"/></filter><path id="path0_fill" d="M0 0h42v42H0V0z"/><path id="path1_fill" d="M0 0h37.8v37.8H0V0z"/><path id="path2_stroke_2x" d="M0 0v-3h-3v3h3zm37.8 0h3v-3h-3v3zm0 37.8v3h3v-3h-3zM0 37.8h-3v3h3v-3zM0 3h37.8v-6H0v6zm34.8-3v37.8h6V0h-6zm3 34.8H0v6h37.8v-6zM3 37.8V0h-6v37.8h6z"/><path id="path3_fill" d="M0 0h25.2v25.2H0V0z"/><path id="path4_stroke_2x" d="M0 0v-2h-2v2h2zm25.2 0h2v-2h-2v2zm0 25.2v2h2v-2h-2zM0 25.2h-2v2h2v-2zM0 2h25.2v-4H0v4zm23.2-2v25.2h4V0h-4zm2 23.2H0v4h25.2v-4zM2 25.2V0h-4v25.2h4z"/><path id="path5_fill" d="M0 0h14.7v14.7H0V0z"/><path id="path6_stroke_2x" d="M0 0v-1h-1v1h1zm14.7 0h1v-1h-1v1zm0 14.7v1h1v-1h-1zM0 14.7h-1v1h1v-1zM0 1h14.7v-2H0v2zm13.7-1v14.7h2V0h-2zm1 13.7H0v2h14.7v-2zM1 14.7V0h-2v14.7h2z"/></defs></svg>