<svg viewBox="0 0 735 186" xmlns="http://www.w3.org/2000/svg" xmlns:xlink="http://www.w3.org/1999/xlink"><g><g filter="url(#filter0_d)" transform="translate(669 -2081)"><use xlink:href="#path0_fill" transform="translate(-660 2093)" fill="#41B883"/></g></g><defs><filter id="filter0_d" filterUnits="userSpaceOnUse" x="-669" y="2081" width="735" height="186" color-interpolation-filters="sRGB"><feFlood flood-opacity="0" result="BackgroundImageFix"/><feColorMatrix in="SourceAlpha" values="0 0 0 0 0 0 0 0 0 0 0 0 0 0 0 0 0 0 255 0"/><feOffset/><feGaussianBlur stdDeviation="5"/><feColorMatrix values="0 0 0 0 0.254902 0 0 0 0 0.721569 0 0 0 0 0.513726 0 0 0 1 0"/><feBlend in2="BackgroundImageFix" result="effect1_dropShadow"/><feBlend in="SourceGraphic" in2="effect1_dropShadow" result="shape"/></filter><path id="path0_fill" d="M22.528 2.968L1.76 57H11l5.544-14.96h20.68L42.768 57h9.328L31.328 2.968h-8.8zm4.312 11.176l7.392 19.976H19.448l7.392-19.976zm28.911 31.592c1.144 7.568 7.48 12.144 16.632 12.144 8.8 0 15.224-4.752 15.224-12.496 0-5.72-3.344-9.504-10.032-11.088l-8.272-1.936c-2.816-.704-4.048-1.848-4.048-3.608 0-3.08 3.168-4.488 6.248-4.488 4.048 0 6.336 1.76 7.128 4.312h8.624c-1.32-7.128-6.512-11.528-15.664-11.528-8.536 0-14.784 5.192-14.784 12.232 0 6.424 4.136 9.416 9.68 10.736l8.096 1.936c3.256.792 4.576 1.936 4.576 4.048 0 3.08-2.64 4.664-6.688 4.664-3.872 0-6.776-1.672-7.744-4.928h-8.976zM121.55 57h10.648L114.95 34.824l16.632-16.896h-11.264l-15.312 16.016V-.2h-8.8V57h8.8V44.064l3.608-3.696L121.55 57zm68.917-39.072h-8.8v25.696c-.968 3.872-4.312 6.248-8.096 6.248-5.016 0-7.304-3.168-7.304-8.008V17.928h-8.8V43.36c0 8.624 4.84 14.52 13.728 14.52 4.576 0 8.36-2.112 10.472-4.576V57h8.8V17.928zm8.198 27.808c1.144 7.568 7.48 12.144 16.632 12.144 8.8 0 15.225-4.752 15.225-12.496 0-5.72-3.345-9.504-10.032-11.088l-8.272-1.936c-2.817-.704-4.049-1.848-4.049-3.608 0-3.08 3.168-4.488 6.248-4.488 4.049 0 6.337 1.76 7.129 4.312h8.623c-1.319-7.128-6.512-11.528-15.664-11.528-8.535 0-14.783 5.192-14.783 12.232 0 6.424 4.136 9.416 9.679 10.736l8.097 1.936c3.256.792 4.575 1.936 4.575 4.048 0 3.08-2.64 4.664-6.687 4.664-3.872 0-6.777-1.672-7.744-4.928h-8.977zm81.437-45.76c-1.584-.704-3.256-1.056-5.808-1.056-7.304 0-12.848 4.576-12.848 12.936v6.072h-6.776v7.304h6.776V57h8.624V25.232h8.536v-7.304h-8.536v-5.456c0-3.872 2.2-5.984 5.72-5.984 1.408 0 2.992.352 4.312 1.232V-.024zm39.918 37.488c0-11.968-7.568-20.416-18.568-20.416-11 0-18.568 8.448-18.568 20.416s7.568 20.416 18.568 20.416c11 0 18.568-8.448 18.568-20.416zm-8.8 0c0 7.392-3.432 12.848-9.768 12.848s-9.768-5.456-9.768-12.848 3.432-12.848 9.768-12.848 9.768 5.456 9.768 12.848zm38.841-19.712c-.616-.352-2.376-.704-4.312-.704-3.784 0-7.216 2.024-8.712 4.928v-4.048h-8.8V57h8.8V31.744c.88-4.224 4.224-6.248 7.832-6.248 1.848 0 3.96.44 5.192 1.32v-9.064zM407.661 57V31.392c0-8.888-5.808-14.344-15.664-14.344-8.008 0-14.168 5.016-15.312 11.704h8.448c.968-2.728 3.168-4.224 6.688-4.224 5.016 0 7.48 3.08 7.48 7.04v3.168c-1.584-1.144-5.544-2.376-9.064-2.376-8.624 0-15.224 5.192-15.224 12.584 0 8.008 6.6 12.76 14.608 12.76 4.4 0 8.36-1.584 9.68-2.904V57h8.36zm-8.36-10.384c-.968 2.464-4.488 3.96-8.008 3.96-3.96 0-8.096-1.672-8.096-5.632 0-3.872 4.136-5.544 8.096-5.544 3.52 0 7.04 1.496 8.008 3.96v3.256zM462.808 57h8.8V-.2h-8.8v21.472c-1.76-2.2-5.632-4.224-9.944-4.224-11.44 0-18.128 9.24-18.128 20.416 0 11.264 6.688 20.416 18.128 20.416 4.312 0 8.184-2.024 9.944-4.224V57zm0-12.144c-1.496 3.08-4.84 5.192-8.448 5.192-6.776 0-10.824-5.368-10.824-12.584 0-7.216 4.048-12.584 10.824-12.584 3.608 0 6.952 2.112 8.448 5.192v14.784zm43.799 0c-.968 3.784-4.136 5.632-8.36 5.632-5.632 0-9.592-4.136-9.856-11h26.664V36.32c0-11.44-5.984-19.272-16.984-19.272-10.648 0-18.304 8.8-18.304 20.504 0 12.056 7.568 20.328 18.48 20.328 9.416 0 15.136-5.28 16.456-13.024h-8.096zm-8.448-20.416c5.368 0 8.096 3.872 8.184 8.624h-17.688c1.056-5.632 4.664-8.624 9.504-8.624zm53.848-2.2c-2.023-2.992-5.895-5.192-10.295-5.192s-7.921 1.672-9.768 4.136v-3.256h-8.801V57h8.801V30.776c.792-3.872 3.783-5.808 6.951-5.808 4.312 0 6.425 3.168 6.425 8.008V57h8.8V30.776c.792-3.872 3.783-5.808 6.952-5.808 4.311 0 6.423 3.168 6.423 8.008V57h8.801V31.568c0-8.888-4.665-14.52-12.672-14.52-5.28 0-8.888 2.024-11.617 5.192zm69.052 15.224c0-11.968-7.568-20.416-18.568-20.416-11 0-18.568 8.448-18.568 20.416s7.568 20.416 18.568 20.416c11 0 18.568-8.448 18.568-20.416zm-8.8 0c0 7.392-3.432 12.848-9.768 12.848s-9.768-5.456-9.768-12.848 3.432-12.848 9.768-12.848 9.768 5.456 9.768 12.848zm70.847 0c0-11.968-7.568-20.416-18.568-20.416-11 0-18.568 8.448-18.568 20.416s7.568 20.416 18.568 20.416c11 0 18.568-8.448 18.568-20.416zm-8.8 0c0 7.392-3.432 12.848-9.768 12.848s-9.768-5.456-9.768-12.848 3.432-12.848 9.768-12.848 9.768 5.456 9.768 12.848zM712.883-.024c-1.584-.704-3.256-1.056-5.808-1.056-7.304 0-12.848 4.576-12.848 12.936v6.072h-6.776v7.304h6.776V57h8.624V25.232h8.536v-7.304h-8.536v-5.456c0-3.872 2.2-5.984 5.72-5.984 1.408 0 2.992.352 4.312 1.232V-.024zM39.864 128.464c0-11.968-7.568-20.416-18.568-20.416-11 0-18.568 8.448-18.568 20.416s7.568 20.416 18.568 20.416c11 0 18.568-8.448 18.568-20.416zm-8.8 0c0 7.392-3.432 12.848-9.768 12.848s-9.768-5.456-9.768-12.848 3.432-12.848 9.768-12.848 9.768 5.456 9.768 12.848zm49.489-19.536h-8.8v25.696c-.968 3.872-4.312 6.248-8.096 6.248-5.016 0-7.304-3.168-7.304-8.008v-23.936h-8.8v25.432c0 8.624 4.84 14.52 13.728 14.52 4.576 0 8.36-2.112 10.472-4.576V148h8.8v-39.072zm32.75-.176c-.616-.352-2.376-.704-4.312-.704-3.784 0-7.216 2.024-8.712 4.928v-4.048h-8.8V148h8.8v-25.256c.88-4.224 4.224-6.248 7.832-6.248 1.848 0 3.96.44 5.192 1.32v-9.064zm23.369 23.496c.792 9.592 6.688 16.632 18.304 16.632 11.088 0 18.128-6.688 18.128-19.536V93.968h-9.152v35.376c0 7.656-2.992 11.176-9.152 11.176-5.192 0-8.008-3.08-8.624-8.272h-9.504zM213.615 148v-25.608c0-8.888-5.809-14.344-15.665-14.344-8.007 0-14.168 5.016-15.311 11.704h8.448c.967-2.728 3.168-4.224 6.688-4.224 5.015 0 7.479 3.08 7.479 7.04v3.168c-1.583-1.144-5.543-2.376-9.063-2.376-8.624 0-15.225 5.192-15.225 12.584 0 8.008 6.601 12.76 14.609 12.76 4.399 0 8.359-1.584 9.679-2.904v2.2h8.361zm-8.361-10.384c-.967 2.464-4.488 3.96-8.008 3.96-3.96 0-8.095-1.672-8.095-5.632 0-3.872 4.135-5.544 8.095-5.544 3.52 0 7.041 1.496 8.008 3.96v3.256zM243.112 148l14.872-39.072h-9.152l-10.032 28.6-10.12-28.6h-9.416L234.048 148h9.064zm50.682 0v-25.608c0-8.888-5.808-14.344-15.664-14.344-8.008 0-14.168 5.016-15.312 11.704h8.448c.968-2.728 3.168-4.224 6.688-4.224 5.016 0 7.48 3.08 7.48 7.04v3.168c-1.584-1.144-5.544-2.376-9.064-2.376-8.624 0-15.224 5.192-15.224 12.584 0 8.008 6.6 12.76 14.608 12.76 4.4 0 8.36-1.584 9.68-2.904v2.2h8.36zm-8.36-10.384c-.968 2.464-4.488 3.96-8.008 3.96-3.96 0-8.096-1.672-8.096-5.632 0-3.872 4.136-5.544 8.096-5.544 3.52 0 7.04 1.496 8.008 3.96v3.256zm15.045-4.576c1.936 10.032 10.12 15.84 21.56 15.84 11.176 0 19.272-6.248 19.272-16.368 0-8.096-5.544-13.024-13.992-14.96l-9.416-2.2c-4.84-1.144-7.128-3.432-7.128-7.04 0-4.488 3.96-7.48 9.768-7.48 6.424 0 9.856 3.168 11.264 7.216h9.152c-1.936-8.976-8.8-14.96-20.504-14.96-10.912 0-18.392 6.864-18.392 16.016 0 8.712 5.984 12.76 13.464 14.52l9.152 2.2c5.632 1.32 7.832 3.52 7.832 7.304 0 5.016-4.136 8.008-10.472 8.008-5.896 0-10.472-2.552-12.232-8.096h-9.328zm47.03-4.576c0 12.144 7.656 20.416 18.216 20.416 9.328 0 15.224-5.28 16.368-13.112h-8.8c-.704 3.52-3.608 5.456-7.48 5.456-5.896 0-9.504-5.368-9.504-12.76 0-7.392 3.608-12.76 9.504-12.76 3.872 0 6.776 1.936 7.48 5.456h8.8c-1.144-7.832-7.04-13.112-16.368-13.112-10.56 0-18.216 8.272-18.216 20.416zm64.255-19.712c-.616-.352-2.376-.704-4.312-.704-3.784 0-7.216 2.024-8.712 4.928v-4.048h-8.8V148h8.8v-25.256c.88-4.224 4.224-6.248 7.832-6.248 1.848 0 3.96.44 5.192 1.32v-9.064zm16.883.176h-8.8V148h8.8v-39.072zm1.056-11.792c0-2.992-2.552-5.368-5.456-5.368-2.904 0-5.456 2.376-5.456 5.368 0 2.992 2.552 5.368 5.456 5.368 2.904 0 5.456-2.376 5.456-5.368zm18.623 47.52c1.76 2.2 5.632 4.224 9.944 4.224 11.44 0 18.128-9.504 18.128-20.416s-6.688-20.416-18.128-20.416c-4.312 0-8.184 2.024-9.944 4.224v-3.344h-8.8v54.032h8.8v-18.304zm0-23.584c1.496-3.08 4.84-5.192 8.448-5.192 6.776 0 10.824 5.368 10.824 12.584 0 7.216-4.048 12.584-10.824 12.584-3.608 0-6.952-2.112-8.448-5.192v-14.784zm38.256 16.368c0 7.744 4.928 11.44 11.88 11.44 2.728 0 5.104-.528 6.6-1.408v-8.008c-1.232.88-3.256 1.584-5.016 1.584-2.904 0-4.664-1.408-4.664-4.576v-20.24h8.8v-7.304h-8.8V98.456h-8.8v10.472h-6.16v7.304h6.16v21.208zm72.218 7.92c0 7.304-3.08 11.264-9.592 11.264-4.84 0-7.92-2.2-8.8-6.512h-8.536c.968 8.536 7.392 13.728 17.336 13.728 10.384 0 18.392-5.896 18.392-19.096v-35.816h-8.8v3.168c-1.76-2.112-5.544-4.048-9.944-4.048-11.528 0-18.128 9.504-18.128 19.8 0 10.296 6.6 19.8 18.128 19.8 4.4 0 8.184-1.936 9.944-4.048v1.76zm0-10.12c-1.496 2.64-4.752 4.664-8.448 4.664-6.776 0-10.648-5.104-10.648-12.056 0-6.952 3.872-12.056 10.648-12.056 3.696 0 6.952 2.024 8.448 4.664v14.784zM608.583 148v-25.608c0-8.888-5.808-14.344-15.664-14.344-8.008 0-14.168 5.016-15.312 11.704h8.448c.968-2.728 3.168-4.224 6.688-4.224 5.016 0 7.48 3.08 7.48 7.04v3.168c-1.584-1.144-5.544-2.376-9.064-2.376-8.624 0-15.224 5.192-15.224 12.584 0 8.008 6.6 12.76 14.608 12.76 4.4 0 8.36-1.584 9.68-2.904v2.2h8.36zm-8.36-10.384c-.968 2.464-4.488 3.96-8.008 3.96-3.96 0-8.096-1.672-8.096-5.632 0-3.872 4.136-5.544 8.096-5.544 3.52 0 7.04 1.496 8.008 3.96v3.256zm47.605-24.376c-2.024-2.992-5.896-5.192-10.296-5.192-4.4 0-7.92 1.672-9.768 4.136v-3.256h-8.8V148h8.8v-26.224c.792-3.872 3.784-5.808 6.952-5.808 4.312 0 6.424 3.168 6.424 8.008V148h8.8v-26.224c.792-3.872 3.784-5.808 6.952-5.808 4.312 0 6.424 3.168 6.424 8.008V148h8.8v-25.432c0-8.888-4.664-14.52-12.672-14.52-5.28 0-8.888 2.024-11.616 5.192zm58.756 22.616c-.968 3.784-4.136 5.632-8.36 5.632-5.632 0-9.592-4.136-9.856-11h26.664v-3.168c0-11.44-5.984-19.272-16.984-19.272-10.648 0-18.304 8.8-18.304 20.504 0 12.056 7.568 20.328 18.48 20.328 9.416 0 15.136-5.28 16.456-13.024h-8.096zm-8.448-20.416c5.368 0 8.096 3.872 8.184 8.624h-17.688c1.056-5.632 4.664-8.624 9.504-8.624z"/></defs></svg>