<svg viewBox="0 0 64 57" xmlns="http://www.w3.org/2000/svg" xmlns:xlink="http://www.w3.org/1999/xlink"><use xlink:href="#path0_fill" transform="translate(.534 .075)" fill="#61DAFB"/><use xlink:href="#path1_fill" transform="translate(26.12 22.397)" fill="#61DAFB"/><defs><path id="path0_fill" d="M62.9206 28.2243c0-4.1981-5.2199-8.1767-13.2228-10.6439 1.8468-8.21537 1.026-14.75151-2.5907-16.84412-.8337-.49085-1.8084-.72336-2.8729-.72336v2.88055c.59 0 1.0645.11626 1.4621.33585 1.7442 1.00755 2.5009 4.84398 1.911 9.77838-.1411 1.2142-.372 2.493-.6541 3.7977-2.5138-.62-5.2584-1.098-8.144-1.408-1.7314-2.3897-3.527-4.5598-5.3353-6.45864 4.181-3.91394 8.1055-6.0582 10.7732-6.0582V0c-3.527 0-8.1441 2.53179-12.8124 6.92367-4.6684-4.36605-9.2855-6.872-12.8125-6.872v2.88055c2.6549 0 6.5922 2.13136 10.7732 6.01946-1.7955 1.89882-3.591 4.05602-5.2968 6.44572-2.8985.31-5.6431.788-8.1568 1.4209-.295-1.2917-.513-2.5447-.6669-3.746-.6028-4.93441.141-8.77084 1.8724-9.79131.3848-.23251.885-.33585 1.4749-.33585V.06459c-1.0773 0-2.052.2325-2.8985.72336-3.6039 2.0926-4.4118 8.61583-2.5522 16.80535C5.19422 20.0735 0 24.0391 0 28.2243c0 4.1981 5.21987 8.1766 13.2228 10.6438-1.8468 8.2154-1.026 14.7516 2.5907 16.8442.8337.4908 1.8084.7233 2.8857.7233 3.5269 0 8.144-2.5318 12.8124-6.9236 4.6684 4.366 9.2855 6.872 12.8124 6.872 1.0773 0 2.0521-.2326 2.8985-.7234 3.6039-2.0926 4.4119-8.6158 2.5522-16.8054 7.9517-2.4672 13.1459-6.4457 13.1459-10.6309zm-16.6985-8.6159c-.4745 1.6664-1.0645 3.3844-1.7314 5.1024-.5258-1.0334-1.0773-2.0668-1.6801-3.1002-.5899-1.0334-1.2184-2.0409-1.8468-3.0226 1.8212.2712 3.5782.6071 5.2583 1.0204zm-5.8739 13.7569c-1.0004 1.7439-2.0264 3.3973-3.0909 4.9345-1.9109.1679-3.8476.2583-5.797.2583-1.9366 0-3.8732-.0904-5.7714-.2454-1.0644-1.5372-2.1033-3.1777-3.1037-4.9086-.9747-1.6922-1.8596-3.4102-2.6676-5.1411.7952-1.7309 1.6929-3.4618 2.6548-5.154 1.0004-1.7438 2.0264-3.3972 3.0909-4.9344 1.911-.1679 3.8476-.2583 5.797-.2583 1.9366 0 3.8732.0904 5.7714.2454 1.0645 1.5372 2.1033 3.1777 3.1037 4.9086.9747 1.6921 1.8596 3.4101 2.6676 5.1411-.808 1.7309-1.6929 3.4618-2.6548 5.1539zm4.1425-1.6792c.6926 1.7309 1.2826 3.4618 1.7699 5.1411-1.6801.4133-3.45.7621-5.284 1.0334.6285-.9947 1.2569-2.0151 1.8469-3.0614.5899-1.0334 1.1414-2.0797 1.6672-3.1131zM31.486 45.4688c-1.1928-1.24-2.3855-2.6222-3.5655-4.1335 1.1543.0517 2.3342.0904 3.527.0904 1.2055 0 2.3983-.0258 3.5654-.0904-1.1543 1.5113-2.347 2.8935-3.5269 4.1335zm-9.542-7.6082c-1.8212-.2713-3.5783-.6071-5.2584-1.0205.4746-1.6663 1.0645-3.3843 1.7314-5.1023.5259 1.0334 1.0774 2.0667 1.6801 3.1001.6028 1.0334 1.2184 2.041 1.8469 3.0227zm9.4778-26.8809c1.1928 1.2401 2.3855 2.6222 3.5654 4.1335-1.1542-.0516-2.3342-.0904-3.5269-.0904-1.2056 0-2.3983.0258-3.5654.0904 1.1543-1.5113 2.347-2.8934 3.5269-4.1335zm-9.4906 7.6083c-.6285.9946-1.2569 2.0151-1.8469 3.0614-.5899 1.0334-1.1414 2.0667-1.6673 3.1001-.6925-1.7309-1.2825-3.4618-1.7698-5.1411 1.6801-.4004 3.4499-.7492 5.284-1.0204zM10.3243 34.7604c-4.54012-1.9505-7.4771-4.5081-7.4771-6.5361 0-2.028 2.93698-4.5986 7.4771-6.5362 1.103-.4779 2.3086-.9042 3.5526-1.3046.731 2.5318 1.6929 5.1669 2.8857 7.8666-1.1799 2.6868-2.129 5.309-2.8472 7.8279-1.2697-.4005-2.4753-.8396-3.5911-1.3176zm6.9 18.4588c-1.7442-1.0075-2.5009-4.844-1.911-9.7784.1411-1.2142.372-2.493.6541-3.7976 2.5138.62 5.2584 1.0979 8.144 1.4079 1.7315 2.3897 3.527 4.5598 5.3353 6.4587-4.181 3.9139-8.1055 6.0582-10.7732 6.0582-.5771-.0129-1.0645-.1292-1.4492-.3488zm30.4215-9.843c.6027 4.9344-.1411 8.7709-1.8725 9.7914-.3848.2325-.885.3358-1.4749.3358-2.6549 0-6.5922-2.1314-10.7732-6.0195 1.7955-1.8988 3.591-4.056 5.2968-6.4457 2.8985-.31 5.6431-.7879 8.1568-1.4209.295 1.3047.5259 2.5576.667 3.7589zm4.9377-8.6158c-1.103.478-2.3086.9042-3.5526 1.3047-.7311-2.5318-1.693-5.167-2.8857-7.8667 1.1799-2.6868 2.129-5.309 2.8472-7.8278 1.2697.4004 2.4753.8396 3.6039 1.3175 4.5401 1.9505 7.4771 4.5082 7.4771 6.5362-.0128 2.028-2.9498 4.5985-7.4899 6.5361z"/><path id="path1_fill" d="M5.86113 11.8064c3.23702 0 5.86117-2.64295 5.86117-5.9032S9.09815 0 5.86113 0C2.62412 0 0 2.64295 0 5.9032s2.62412 5.9032 5.86113 5.9032z"/></defs></svg>