<svg viewBox="0 0 34 38" xmlns="http://www.w3.org/2000/svg" xmlns:xlink="http://www.w3.org/1999/xlink"><use xlink:href="#path0_fill" transform="rotate(-119.51221 17.80975 18.55211)"/><defs><path id="path0_fill" d="M16.6611 33.3242c7.6999 0 14.1951-5.2517 16.0963-12.3595h4.5309L30.3555 8.95577 23.4228 20.9632h3.9805c-1.7104 4.2574-5.8797 7.2728-10.7417 7.2728-6.3823 0-11.57442-5.192-11.57442-11.5744 0-6.3818 5.19212-11.57442 11.57442-11.57442 3.2834 0 6.2476 1.37621 8.3572 3.57774l2.6142-4.52835C24.7006 1.56314 20.8618 0 16.6626 0 7.47466 0 0 7.47366 0 16.6621c-.001 9.1885 7.47267 16.6621 16.6611 16.6621z"/></defs></svg>